<?xml version="1.0"?>
<svg version="1.1" xmlns="http://www.w3.org/2000/svg" width="200px" height="50px" style=""><path fill="#990565" d="M65.904,22.088l-2.128,0l-5.964,14.812l-5.628-14.812l-1.764,0l7.392,19.712z M69.87552,41.828l1.764,0l0-19.684l-1.764,0l0,19.684z M85.91056,41.856l13.692,0l0-1.428l-11.956,0l0-18.228l-1.736,0l0,19.656z M102.95808,41.828l1.764,0l0-19.684l-1.764,0l0,19.684z M122.0496,31.804q1.092-0.532,1.792-1.764q0.7-1.176,0.7-2.52q0-2.408-1.624-3.892q-1.624-1.456-4.088-1.456l-7.868,0l-0.336,0l-1.428,0l0,19.628l1.428,0l0.336,0l7.868,0q2.464,0,4.088-1.456q1.624-1.484,1.624-3.892q0-1.316-0.686-2.562t-1.806-2.086z M110.9616,23.6l7.868,0q1.68,0,2.772,1.148q1.176,1.232,1.176,2.772q0,1.26-0.924,2.324q-0.868,0.952-2.296,1.26l-0.728,0l-7.868,0l0-7.504z M118.8296,40.372l-7.868,0l0-7.504l7.868,0l0.728,0q1.428,0.308,2.296,1.26q0.924,1.064,0.924,2.324q0,1.512-1.176,2.744q-1.12,1.176-2.772,1.176z M137.27712,31.972l2.1,0q2.128,0,3.528-1.4t1.4-3.528q0-1.876-1.4-3.36q-1.484-1.54-3.528-1.54l-8.764,0l-1.736,0l0,19.656l1.736,0l0-9.828l4.564,0l5.964,9.828l2.1,0z M130.61312,30.236l0-6.328l8.764,0q1.288,0,2.268,0.924q0.924,0.924,0.924,2.212q0,1.344-0.924,2.268q-0.98,0.924-2.268,0.924l-8.764,0z M155.72464,22.088q-3.136,0-5.264,2.268q-2.1,2.24-2.1,5.46l0,11.984l1.764,0l0-8.792l11.256,0l0,8.792l1.764,0l0-11.984q0-3.22-2.1-5.46q-2.184-2.268-5.32-2.268z M161.38064,31.272l-11.256,0l0-1.456q0-2.408,1.624-4.172q1.652-1.792,3.976-1.792t4.032,1.792q1.624,1.764,1.624,4.172l0,1.456z M175.93616,31.972l2.1,0q2.128,0,3.528-1.4t1.4-3.528q0-1.876-1.4-3.36q-1.484-1.54-3.528-1.54l-8.764,0l-1.736,0l0,19.656l1.736,0l0-9.828l4.564,0l5.964,9.828l2.1,0z M169.27216,30.236l0-6.328l8.764,0q1.288,0,2.268,0.924q0.924,0.924,0.924,2.212q0,1.344-0.924,2.268q-0.98,0.924-2.268,0.924l-8.764,0z M201.88768,22.2l-1.736,0l0,2.072q0,2.576-1.792,4.312q-1.764,1.68-4.2,1.68q-2.604,0-4.284-1.68t-1.68-4.312l0-2.072l-1.736,0l0,2.072q0,3.136,1.904,5.32q1.876,2.212,4.76,2.408l0,9.828l1.764,0l0-9.828q2.94-0.224,4.956-2.408q2.044-2.184,2.044-5.32l0-2.072z"/><path fill="#ed1170" d=""/></svg>
